<svg width="512" height="512" viewBox="0 0 512 512" xmlns="http://www.w3.org/2000/svg">
  <defs>
    <!-- Halender theme colors from palette.dark.json -->
    <style>
      .bg-color { fill: #1a253d; }
      .fg-color { fill: #b2bacc; }
      .stroke-color { stroke: #1a253d; }
    </style>
  </defs>
  
  <!-- Pie chart segments (colorful border) - fixed stroke overflow -->
  <!-- Segment 1: Crimson -->
  <path d="M 256 256 L 256 60 A 196 196 0 0 1 391.4 116.6 Z" fill="#ef6b73"/>
  
  <!-- Segment 2: Amber -->
  <path d="M 256 256 L 391.4 116.6 A 196 196 0 0 1 452 256 Z" fill="#ffae57"/>
  
  <!-- Segment 3: Citrine -->
  <path d="M 256 256 L 452 256 A 196 196 0 0 1 391.4 395.4 Z" fill="#eFE24D"/>
  
  <!-- Segment 4: Lime -->
  <path d="M 256 256 L 391.4 395.4 A 196 196 0 0 1 256 452 Z" fill="#a7d963"/>
  
  <!-- Segment 5: Cyan -->
  <path d="M 256 256 L 256 452 A 196 196 0 0 1 120.6 395.4 Z" fill="#5ccfe6"/>
  
  <!-- Segment 6: Azure -->
  <path d="M 256 256 L 120.6 395.4 A 196 196 0 0 1 60 256 Z" fill="#2190f0"/>
  
  <!-- Segment 7: Lavender -->
  <path d="M 256 256 L 60 256 A 196 196 0 0 1 120.6 116.6 Z" fill="#c3a6ff"/>
  
  <!-- Segment 8: Magenta -->
  <path d="M 256 256 L 120.6 116.6 A 196 196 0 0 1 256 60 Z" fill="#dc73f1"/>
  
  <!-- Outer circle with stroke (inside the 512px boundary) -->
  <circle cx="256" cy="256" r="196" fill="none" class="stroke-color" stroke-width="8"/>
  
  <!-- Large center circle with background color -->
  <circle cx="256" cy="256" r="140" class="bg-color"/>
  
  <!-- H letter built from rectangles -->
  <!-- Left vertical bar -->
  <rect x="206" y="176" width="24" height="160" rx="4" ry="4" class="fg-color"/>
  
  <!-- Right vertical bar -->
  <rect x="282" y="176" width="24" height="160" rx="4" ry="4" class="fg-color"/>
  
  <!-- Horizontal crossbar -->
  <rect x="206" y="246" width="100" height="20" rx="4" ry="4" class="fg-color"/>
</svg>